M48
; DRILL file KiCad 10.0.0 date 2026-04-19T18:52:52
; FORMAT={-:-/ absolute / metric / decimal}
; #@! TF.CreationDate,2026-04-19T18:52:52+05:30
; #@! TF.GenerationSoftware,Kicad,Pcbnew,10.0.0
; #@! TF.FileFunction,Plated,1,2,PTH
FMAT,2
METRIC
; #@! TA.AperFunction,Plated,PTH,ComponentDrill
T1C0.800
; #@! TA.AperFunction,Plated,PTH,ComponentDrill
T2C0.850
; #@! TA.AperFunction,Plated,PTH,ComponentDrill
T3C0.900
; #@! TA.AperFunction,Plated,PTH,ComponentDrill
T4C1.000
%
G90
G05
T1
X117.45Y-57.545
X117.45Y-60.085
X117.45Y-62.625
X117.45Y-65.165
X117.45Y-67.705
X117.45Y-70.245
X117.45Y-72.785
X117.45Y-75.325
X117.45Y-79.415
X117.45Y-81.955
X117.45Y-84.495
X117.45Y-87.035
X125.07Y-57.545
X125.07Y-60.085
X125.07Y-62.625
X125.07Y-65.165
X125.07Y-67.705
X125.07Y-70.245
X125.07Y-72.785
X125.07Y-75.325
X125.07Y-79.415
X125.07Y-81.955
X125.07Y-84.495
X125.07Y-87.035
X133.19Y-89.75
X133.44Y-84.75
X134.5Y-58.25
X137.0Y-67.0
X139.5Y-58.25
X139.5Y-67.0
X140.81Y-89.75
X141.06Y-84.75
T2
X133.17Y-77.5
X135.71Y-77.5
X138.25Y-77.5
T3
X102.98Y-59.235
X102.98Y-74.175
X102.98Y-81.645
X102.98Y-89.115
X103.25Y-66.25
X105.52Y-59.235
X105.52Y-74.175
X105.52Y-81.645
X105.52Y-89.115
X105.79Y-66.25
X146.23Y-58.0
X146.48Y-66.0
X146.48Y-73.75
X146.71Y-81.5
X146.75Y-89.0
X148.77Y-58.0
X149.02Y-66.0
X149.02Y-73.75
X149.25Y-81.5
X149.29Y-89.0
T4
X132.5Y-64.98
X132.5Y-67.52
M30
