%TF.GenerationSoftware,KiCad,Pcbnew,10.0.0*%
%TF.CreationDate,2026-04-19T18:52:56+05:30*%
%TF.ProjectId,Blinky,426c696e-6b79-42e6-9b69-6361645f7063,rev?*%
%TF.SameCoordinates,Original*%
%TF.FileFunction,Legend,Top*%
%TF.FilePolarity,Positive*%
%FSLAX46Y46*%
G04 Gerber Fmt 4.6, Leading zero omitted, Abs format (unit mm)*
G04 Created by KiCad (PCBNEW 10.0.0) date 2026-04-19 18:52:56*
%MOMM*%
%LPD*%
G01*
G04 APERTURE LIST*
%ADD10C,0.150000*%
%ADD11C,0.120000*%
G04 APERTURE END LIST*
D10*
X136833333Y-87834819D02*
X136500000Y-87358628D01*
X136261905Y-87834819D02*
X136261905Y-86834819D01*
X136261905Y-86834819D02*
X136642857Y-86834819D01*
X136642857Y-86834819D02*
X136738095Y-86882438D01*
X136738095Y-86882438D02*
X136785714Y-86930057D01*
X136785714Y-86930057D02*
X136833333Y-87025295D01*
X136833333Y-87025295D02*
X136833333Y-87168152D01*
X136833333Y-87168152D02*
X136785714Y-87263390D01*
X136785714Y-87263390D02*
X136738095Y-87311009D01*
X136738095Y-87311009D02*
X136642857Y-87358628D01*
X136642857Y-87358628D02*
X136261905Y-87358628D01*
X137214286Y-86930057D02*
X137261905Y-86882438D01*
X137261905Y-86882438D02*
X137357143Y-86834819D01*
X137357143Y-86834819D02*
X137595238Y-86834819D01*
X137595238Y-86834819D02*
X137690476Y-86882438D01*
X137690476Y-86882438D02*
X137738095Y-86930057D01*
X137738095Y-86930057D02*
X137785714Y-87025295D01*
X137785714Y-87025295D02*
X137785714Y-87120533D01*
X137785714Y-87120533D02*
X137738095Y-87263390D01*
X137738095Y-87263390D02*
X137166667Y-87834819D01*
X137166667Y-87834819D02*
X137785714Y-87834819D01*
X137083333Y-82834819D02*
X136750000Y-82358628D01*
X136511905Y-82834819D02*
X136511905Y-81834819D01*
X136511905Y-81834819D02*
X136892857Y-81834819D01*
X136892857Y-81834819D02*
X136988095Y-81882438D01*
X136988095Y-81882438D02*
X137035714Y-81930057D01*
X137035714Y-81930057D02*
X137083333Y-82025295D01*
X137083333Y-82025295D02*
X137083333Y-82168152D01*
X137083333Y-82168152D02*
X137035714Y-82263390D01*
X137035714Y-82263390D02*
X136988095Y-82311009D01*
X136988095Y-82311009D02*
X136892857Y-82358628D01*
X136892857Y-82358628D02*
X136511905Y-82358628D01*
X138035714Y-82834819D02*
X137464286Y-82834819D01*
X137750000Y-82834819D02*
X137750000Y-81834819D01*
X137750000Y-81834819D02*
X137654762Y-81977676D01*
X137654762Y-81977676D02*
X137559524Y-82072914D01*
X137559524Y-82072914D02*
X137464286Y-82120533D01*
X152166666Y-94804819D02*
X151833333Y-94328628D01*
X151595238Y-94804819D02*
X151595238Y-93804819D01*
X151595238Y-93804819D02*
X151976190Y-93804819D01*
X151976190Y-93804819D02*
X152071428Y-93852438D01*
X152071428Y-93852438D02*
X152119047Y-93900057D01*
X152119047Y-93900057D02*
X152166666Y-93995295D01*
X152166666Y-93995295D02*
X152166666Y-94138152D01*
X152166666Y-94138152D02*
X152119047Y-94233390D01*
X152119047Y-94233390D02*
X152071428Y-94281009D01*
X152071428Y-94281009D02*
X151976190Y-94328628D01*
X151976190Y-94328628D02*
X151595238Y-94328628D01*
X152595238Y-94281009D02*
X152928571Y-94281009D01*
X153071428Y-94804819D02*
X152595238Y-94804819D01*
X152595238Y-94804819D02*
X152595238Y-93804819D01*
X152595238Y-93804819D02*
X153071428Y-93804819D01*
X153833333Y-94281009D02*
X153500000Y-94281009D01*
X153500000Y-94804819D02*
X153500000Y-93804819D01*
X153500000Y-93804819D02*
X153976190Y-93804819D01*
X154500000Y-93804819D02*
X154500000Y-94042914D01*
X154261905Y-93947676D02*
X154500000Y-94042914D01*
X154500000Y-94042914D02*
X154738095Y-93947676D01*
X154357143Y-94233390D02*
X154500000Y-94042914D01*
X154500000Y-94042914D02*
X154642857Y-94233390D01*
X155261905Y-93804819D02*
X155261905Y-94042914D01*
X155023810Y-93947676D02*
X155261905Y-94042914D01*
X155261905Y-94042914D02*
X155500000Y-93947676D01*
X155119048Y-94233390D02*
X155261905Y-94042914D01*
X155261905Y-94042914D02*
X155404762Y-94233390D01*
X152166666Y-50054819D02*
X151833333Y-49578628D01*
X151595238Y-50054819D02*
X151595238Y-49054819D01*
X151595238Y-49054819D02*
X151976190Y-49054819D01*
X151976190Y-49054819D02*
X152071428Y-49102438D01*
X152071428Y-49102438D02*
X152119047Y-49150057D01*
X152119047Y-49150057D02*
X152166666Y-49245295D01*
X152166666Y-49245295D02*
X152166666Y-49388152D01*
X152166666Y-49388152D02*
X152119047Y-49483390D01*
X152119047Y-49483390D02*
X152071428Y-49531009D01*
X152071428Y-49531009D02*
X151976190Y-49578628D01*
X151976190Y-49578628D02*
X151595238Y-49578628D01*
X152595238Y-49531009D02*
X152928571Y-49531009D01*
X153071428Y-50054819D02*
X152595238Y-50054819D01*
X152595238Y-50054819D02*
X152595238Y-49054819D01*
X152595238Y-49054819D02*
X153071428Y-49054819D01*
X153833333Y-49531009D02*
X153500000Y-49531009D01*
X153500000Y-50054819D02*
X153500000Y-49054819D01*
X153500000Y-49054819D02*
X153976190Y-49054819D01*
X154500000Y-49054819D02*
X154500000Y-49292914D01*
X154261905Y-49197676D02*
X154500000Y-49292914D01*
X154500000Y-49292914D02*
X154738095Y-49197676D01*
X154357143Y-49483390D02*
X154500000Y-49292914D01*
X154500000Y-49292914D02*
X154642857Y-49483390D01*
X155261905Y-49054819D02*
X155261905Y-49292914D01*
X155023810Y-49197676D02*
X155261905Y-49292914D01*
X155261905Y-49292914D02*
X155500000Y-49197676D01*
X155119048Y-49483390D02*
X155261905Y-49292914D01*
X155261905Y-49292914D02*
X155404762Y-49483390D01*
X103511905Y-78139819D02*
X103511905Y-77139819D01*
X103511905Y-77139819D02*
X103750000Y-77139819D01*
X103750000Y-77139819D02*
X103892857Y-77187438D01*
X103892857Y-77187438D02*
X103988095Y-77282676D01*
X103988095Y-77282676D02*
X104035714Y-77377914D01*
X104035714Y-77377914D02*
X104083333Y-77568390D01*
X104083333Y-77568390D02*
X104083333Y-77711247D01*
X104083333Y-77711247D02*
X104035714Y-77901723D01*
X104035714Y-77901723D02*
X103988095Y-77996961D01*
X103988095Y-77996961D02*
X103892857Y-78092200D01*
X103892857Y-78092200D02*
X103750000Y-78139819D01*
X103750000Y-78139819D02*
X103511905Y-78139819D01*
X104940476Y-77473152D02*
X104940476Y-78139819D01*
X104702381Y-77092200D02*
X104464286Y-77806485D01*
X104464286Y-77806485D02*
X105083333Y-77806485D01*
X103511905Y-70669819D02*
X103511905Y-69669819D01*
X103511905Y-69669819D02*
X103750000Y-69669819D01*
X103750000Y-69669819D02*
X103892857Y-69717438D01*
X103892857Y-69717438D02*
X103988095Y-69812676D01*
X103988095Y-69812676D02*
X104035714Y-69907914D01*
X104035714Y-69907914D02*
X104083333Y-70098390D01*
X104083333Y-70098390D02*
X104083333Y-70241247D01*
X104083333Y-70241247D02*
X104035714Y-70431723D01*
X104035714Y-70431723D02*
X103988095Y-70526961D01*
X103988095Y-70526961D02*
X103892857Y-70622200D01*
X103892857Y-70622200D02*
X103750000Y-70669819D01*
X103750000Y-70669819D02*
X103511905Y-70669819D01*
X104416667Y-69669819D02*
X105035714Y-69669819D01*
X105035714Y-69669819D02*
X104702381Y-70050771D01*
X104702381Y-70050771D02*
X104845238Y-70050771D01*
X104845238Y-70050771D02*
X104940476Y-70098390D01*
X104940476Y-70098390D02*
X104988095Y-70146009D01*
X104988095Y-70146009D02*
X105035714Y-70241247D01*
X105035714Y-70241247D02*
X105035714Y-70479342D01*
X105035714Y-70479342D02*
X104988095Y-70574580D01*
X104988095Y-70574580D02*
X104940476Y-70622200D01*
X104940476Y-70622200D02*
X104845238Y-70669819D01*
X104845238Y-70669819D02*
X104559524Y-70669819D01*
X104559524Y-70669819D02*
X104464286Y-70622200D01*
X104464286Y-70622200D02*
X104416667Y-70574580D01*
X147241905Y-77994819D02*
X147241905Y-76994819D01*
X147241905Y-76994819D02*
X147480000Y-76994819D01*
X147480000Y-76994819D02*
X147622857Y-77042438D01*
X147622857Y-77042438D02*
X147718095Y-77137676D01*
X147718095Y-77137676D02*
X147765714Y-77232914D01*
X147765714Y-77232914D02*
X147813333Y-77423390D01*
X147813333Y-77423390D02*
X147813333Y-77566247D01*
X147813333Y-77566247D02*
X147765714Y-77756723D01*
X147765714Y-77756723D02*
X147718095Y-77851961D01*
X147718095Y-77851961D02*
X147622857Y-77947200D01*
X147622857Y-77947200D02*
X147480000Y-77994819D01*
X147480000Y-77994819D02*
X147241905Y-77994819D01*
X148289524Y-77994819D02*
X148480000Y-77994819D01*
X148480000Y-77994819D02*
X148575238Y-77947200D01*
X148575238Y-77947200D02*
X148622857Y-77899580D01*
X148622857Y-77899580D02*
X148718095Y-77756723D01*
X148718095Y-77756723D02*
X148765714Y-77566247D01*
X148765714Y-77566247D02*
X148765714Y-77185295D01*
X148765714Y-77185295D02*
X148718095Y-77090057D01*
X148718095Y-77090057D02*
X148670476Y-77042438D01*
X148670476Y-77042438D02*
X148575238Y-76994819D01*
X148575238Y-76994819D02*
X148384762Y-76994819D01*
X148384762Y-76994819D02*
X148289524Y-77042438D01*
X148289524Y-77042438D02*
X148241905Y-77090057D01*
X148241905Y-77090057D02*
X148194286Y-77185295D01*
X148194286Y-77185295D02*
X148194286Y-77423390D01*
X148194286Y-77423390D02*
X148241905Y-77518628D01*
X148241905Y-77518628D02*
X148289524Y-77566247D01*
X148289524Y-77566247D02*
X148384762Y-77613866D01*
X148384762Y-77613866D02*
X148575238Y-77613866D01*
X148575238Y-77613866D02*
X148670476Y-77566247D01*
X148670476Y-77566247D02*
X148718095Y-77518628D01*
X148718095Y-77518628D02*
X148765714Y-77423390D01*
X146805714Y-85494819D02*
X146805714Y-84494819D01*
X146805714Y-84494819D02*
X147043809Y-84494819D01*
X147043809Y-84494819D02*
X147186666Y-84542438D01*
X147186666Y-84542438D02*
X147281904Y-84637676D01*
X147281904Y-84637676D02*
X147329523Y-84732914D01*
X147329523Y-84732914D02*
X147377142Y-84923390D01*
X147377142Y-84923390D02*
X147377142Y-85066247D01*
X147377142Y-85066247D02*
X147329523Y-85256723D01*
X147329523Y-85256723D02*
X147281904Y-85351961D01*
X147281904Y-85351961D02*
X147186666Y-85447200D01*
X147186666Y-85447200D02*
X147043809Y-85494819D01*
X147043809Y-85494819D02*
X146805714Y-85494819D01*
X148329523Y-85494819D02*
X147758095Y-85494819D01*
X148043809Y-85494819D02*
X148043809Y-84494819D01*
X148043809Y-84494819D02*
X147948571Y-84637676D01*
X147948571Y-84637676D02*
X147853333Y-84732914D01*
X147853333Y-84732914D02*
X147758095Y-84780533D01*
X148948571Y-84494819D02*
X149043809Y-84494819D01*
X149043809Y-84494819D02*
X149139047Y-84542438D01*
X149139047Y-84542438D02*
X149186666Y-84590057D01*
X149186666Y-84590057D02*
X149234285Y-84685295D01*
X149234285Y-84685295D02*
X149281904Y-84875771D01*
X149281904Y-84875771D02*
X149281904Y-85113866D01*
X149281904Y-85113866D02*
X149234285Y-85304342D01*
X149234285Y-85304342D02*
X149186666Y-85399580D01*
X149186666Y-85399580D02*
X149139047Y-85447200D01*
X149139047Y-85447200D02*
X149043809Y-85494819D01*
X149043809Y-85494819D02*
X148948571Y-85494819D01*
X148948571Y-85494819D02*
X148853333Y-85447200D01*
X148853333Y-85447200D02*
X148805714Y-85399580D01*
X148805714Y-85399580D02*
X148758095Y-85304342D01*
X148758095Y-85304342D02*
X148710476Y-85113866D01*
X148710476Y-85113866D02*
X148710476Y-84875771D01*
X148710476Y-84875771D02*
X148758095Y-84685295D01*
X148758095Y-84685295D02*
X148805714Y-84590057D01*
X148805714Y-84590057D02*
X148853333Y-84542438D01*
X148853333Y-84542438D02*
X148948571Y-84494819D01*
X146761905Y-54494819D02*
X146761905Y-53494819D01*
X146761905Y-53494819D02*
X147000000Y-53494819D01*
X147000000Y-53494819D02*
X147142857Y-53542438D01*
X147142857Y-53542438D02*
X147238095Y-53637676D01*
X147238095Y-53637676D02*
X147285714Y-53732914D01*
X147285714Y-53732914D02*
X147333333Y-53923390D01*
X147333333Y-53923390D02*
X147333333Y-54066247D01*
X147333333Y-54066247D02*
X147285714Y-54256723D01*
X147285714Y-54256723D02*
X147238095Y-54351961D01*
X147238095Y-54351961D02*
X147142857Y-54447200D01*
X147142857Y-54447200D02*
X147000000Y-54494819D01*
X147000000Y-54494819D02*
X146761905Y-54494819D01*
X148190476Y-53494819D02*
X148000000Y-53494819D01*
X148000000Y-53494819D02*
X147904762Y-53542438D01*
X147904762Y-53542438D02*
X147857143Y-53590057D01*
X147857143Y-53590057D02*
X147761905Y-53732914D01*
X147761905Y-53732914D02*
X147714286Y-53923390D01*
X147714286Y-53923390D02*
X147714286Y-54304342D01*
X147714286Y-54304342D02*
X147761905Y-54399580D01*
X147761905Y-54399580D02*
X147809524Y-54447200D01*
X147809524Y-54447200D02*
X147904762Y-54494819D01*
X147904762Y-54494819D02*
X148095238Y-54494819D01*
X148095238Y-54494819D02*
X148190476Y-54447200D01*
X148190476Y-54447200D02*
X148238095Y-54399580D01*
X148238095Y-54399580D02*
X148285714Y-54304342D01*
X148285714Y-54304342D02*
X148285714Y-54066247D01*
X148285714Y-54066247D02*
X148238095Y-53971009D01*
X148238095Y-53971009D02*
X148190476Y-53923390D01*
X148190476Y-53923390D02*
X148095238Y-53875771D01*
X148095238Y-53875771D02*
X147904762Y-53875771D01*
X147904762Y-53875771D02*
X147809524Y-53923390D01*
X147809524Y-53923390D02*
X147761905Y-53971009D01*
X147761905Y-53971009D02*
X147714286Y-54066247D01*
X136833333Y-56109580D02*
X136785714Y-56157200D01*
X136785714Y-56157200D02*
X136642857Y-56204819D01*
X136642857Y-56204819D02*
X136547619Y-56204819D01*
X136547619Y-56204819D02*
X136404762Y-56157200D01*
X136404762Y-56157200D02*
X136309524Y-56061961D01*
X136309524Y-56061961D02*
X136261905Y-55966723D01*
X136261905Y-55966723D02*
X136214286Y-55776247D01*
X136214286Y-55776247D02*
X136214286Y-55633390D01*
X136214286Y-55633390D02*
X136261905Y-55442914D01*
X136261905Y-55442914D02*
X136309524Y-55347676D01*
X136309524Y-55347676D02*
X136404762Y-55252438D01*
X136404762Y-55252438D02*
X136547619Y-55204819D01*
X136547619Y-55204819D02*
X136642857Y-55204819D01*
X136642857Y-55204819D02*
X136785714Y-55252438D01*
X136785714Y-55252438D02*
X136833333Y-55300057D01*
X137214286Y-55300057D02*
X137261905Y-55252438D01*
X137261905Y-55252438D02*
X137357143Y-55204819D01*
X137357143Y-55204819D02*
X137595238Y-55204819D01*
X137595238Y-55204819D02*
X137690476Y-55252438D01*
X137690476Y-55252438D02*
X137738095Y-55300057D01*
X137738095Y-55300057D02*
X137785714Y-55395295D01*
X137785714Y-55395295D02*
X137785714Y-55490533D01*
X137785714Y-55490533D02*
X137738095Y-55633390D01*
X137738095Y-55633390D02*
X137166667Y-56204819D01*
X137166667Y-56204819D02*
X137785714Y-56204819D01*
X135114761Y-74454819D02*
X134781428Y-73978628D01*
X134543333Y-74454819D02*
X134543333Y-73454819D01*
X134543333Y-73454819D02*
X134924285Y-73454819D01*
X134924285Y-73454819D02*
X135019523Y-73502438D01*
X135019523Y-73502438D02*
X135067142Y-73550057D01*
X135067142Y-73550057D02*
X135114761Y-73645295D01*
X135114761Y-73645295D02*
X135114761Y-73788152D01*
X135114761Y-73788152D02*
X135067142Y-73883390D01*
X135067142Y-73883390D02*
X135019523Y-73931009D01*
X135019523Y-73931009D02*
X134924285Y-73978628D01*
X134924285Y-73978628D02*
X134543333Y-73978628D01*
X135400476Y-73454819D02*
X135733809Y-74454819D01*
X135733809Y-74454819D02*
X136067142Y-73454819D01*
X136924285Y-74454819D02*
X136352857Y-74454819D01*
X136638571Y-74454819D02*
X136638571Y-73454819D01*
X136638571Y-73454819D02*
X136543333Y-73597676D01*
X136543333Y-73597676D02*
X136448095Y-73692914D01*
X136448095Y-73692914D02*
X136352857Y-73740533D01*
X103511905Y-55729819D02*
X103511905Y-54729819D01*
X103511905Y-54729819D02*
X103750000Y-54729819D01*
X103750000Y-54729819D02*
X103892857Y-54777438D01*
X103892857Y-54777438D02*
X103988095Y-54872676D01*
X103988095Y-54872676D02*
X104035714Y-54967914D01*
X104035714Y-54967914D02*
X104083333Y-55158390D01*
X104083333Y-55158390D02*
X104083333Y-55301247D01*
X104083333Y-55301247D02*
X104035714Y-55491723D01*
X104035714Y-55491723D02*
X103988095Y-55586961D01*
X103988095Y-55586961D02*
X103892857Y-55682200D01*
X103892857Y-55682200D02*
X103750000Y-55729819D01*
X103750000Y-55729819D02*
X103511905Y-55729819D01*
X105035714Y-55729819D02*
X104464286Y-55729819D01*
X104750000Y-55729819D02*
X104750000Y-54729819D01*
X104750000Y-54729819D02*
X104654762Y-54872676D01*
X104654762Y-54872676D02*
X104559524Y-54967914D01*
X104559524Y-54967914D02*
X104464286Y-55015533D01*
X132166666Y-61664819D02*
X132166666Y-62379104D01*
X132166666Y-62379104D02*
X132119047Y-62521961D01*
X132119047Y-62521961D02*
X132023809Y-62617200D01*
X132023809Y-62617200D02*
X131880952Y-62664819D01*
X131880952Y-62664819D02*
X131785714Y-62664819D01*
X133166666Y-62664819D02*
X132595238Y-62664819D01*
X132880952Y-62664819D02*
X132880952Y-61664819D01*
X132880952Y-61664819D02*
X132785714Y-61807676D01*
X132785714Y-61807676D02*
X132690476Y-61902914D01*
X132690476Y-61902914D02*
X132595238Y-61950533D01*
X97916666Y-50304819D02*
X97583333Y-49828628D01*
X97345238Y-50304819D02*
X97345238Y-49304819D01*
X97345238Y-49304819D02*
X97726190Y-49304819D01*
X97726190Y-49304819D02*
X97821428Y-49352438D01*
X97821428Y-49352438D02*
X97869047Y-49400057D01*
X97869047Y-49400057D02*
X97916666Y-49495295D01*
X97916666Y-49495295D02*
X97916666Y-49638152D01*
X97916666Y-49638152D02*
X97869047Y-49733390D01*
X97869047Y-49733390D02*
X97821428Y-49781009D01*
X97821428Y-49781009D02*
X97726190Y-49828628D01*
X97726190Y-49828628D02*
X97345238Y-49828628D01*
X98345238Y-49781009D02*
X98678571Y-49781009D01*
X98821428Y-50304819D02*
X98345238Y-50304819D01*
X98345238Y-50304819D02*
X98345238Y-49304819D01*
X98345238Y-49304819D02*
X98821428Y-49304819D01*
X99583333Y-49781009D02*
X99250000Y-49781009D01*
X99250000Y-50304819D02*
X99250000Y-49304819D01*
X99250000Y-49304819D02*
X99726190Y-49304819D01*
X100250000Y-49304819D02*
X100250000Y-49542914D01*
X100011905Y-49447676D02*
X100250000Y-49542914D01*
X100250000Y-49542914D02*
X100488095Y-49447676D01*
X100107143Y-49733390D02*
X100250000Y-49542914D01*
X100250000Y-49542914D02*
X100392857Y-49733390D01*
X101011905Y-49304819D02*
X101011905Y-49542914D01*
X100773810Y-49447676D02*
X101011905Y-49542914D01*
X101011905Y-49542914D02*
X101250000Y-49447676D01*
X100869048Y-49733390D02*
X101011905Y-49542914D01*
X101011905Y-49542914D02*
X101154762Y-49733390D01*
X103781905Y-62744819D02*
X103781905Y-61744819D01*
X103781905Y-61744819D02*
X104020000Y-61744819D01*
X104020000Y-61744819D02*
X104162857Y-61792438D01*
X104162857Y-61792438D02*
X104258095Y-61887676D01*
X104258095Y-61887676D02*
X104305714Y-61982914D01*
X104305714Y-61982914D02*
X104353333Y-62173390D01*
X104353333Y-62173390D02*
X104353333Y-62316247D01*
X104353333Y-62316247D02*
X104305714Y-62506723D01*
X104305714Y-62506723D02*
X104258095Y-62601961D01*
X104258095Y-62601961D02*
X104162857Y-62697200D01*
X104162857Y-62697200D02*
X104020000Y-62744819D01*
X104020000Y-62744819D02*
X103781905Y-62744819D01*
X104734286Y-61840057D02*
X104781905Y-61792438D01*
X104781905Y-61792438D02*
X104877143Y-61744819D01*
X104877143Y-61744819D02*
X105115238Y-61744819D01*
X105115238Y-61744819D02*
X105210476Y-61792438D01*
X105210476Y-61792438D02*
X105258095Y-61840057D01*
X105258095Y-61840057D02*
X105305714Y-61935295D01*
X105305714Y-61935295D02*
X105305714Y-62030533D01*
X105305714Y-62030533D02*
X105258095Y-62173390D01*
X105258095Y-62173390D02*
X104686667Y-62744819D01*
X104686667Y-62744819D02*
X105305714Y-62744819D01*
X138083333Y-63609580D02*
X138035714Y-63657200D01*
X138035714Y-63657200D02*
X137892857Y-63704819D01*
X137892857Y-63704819D02*
X137797619Y-63704819D01*
X137797619Y-63704819D02*
X137654762Y-63657200D01*
X137654762Y-63657200D02*
X137559524Y-63561961D01*
X137559524Y-63561961D02*
X137511905Y-63466723D01*
X137511905Y-63466723D02*
X137464286Y-63276247D01*
X137464286Y-63276247D02*
X137464286Y-63133390D01*
X137464286Y-63133390D02*
X137511905Y-62942914D01*
X137511905Y-62942914D02*
X137559524Y-62847676D01*
X137559524Y-62847676D02*
X137654762Y-62752438D01*
X137654762Y-62752438D02*
X137797619Y-62704819D01*
X137797619Y-62704819D02*
X137892857Y-62704819D01*
X137892857Y-62704819D02*
X138035714Y-62752438D01*
X138035714Y-62752438D02*
X138083333Y-62800057D01*
X139035714Y-63704819D02*
X138464286Y-63704819D01*
X138750000Y-63704819D02*
X138750000Y-62704819D01*
X138750000Y-62704819D02*
X138654762Y-62847676D01*
X138654762Y-62847676D02*
X138559524Y-62942914D01*
X138559524Y-62942914D02*
X138464286Y-62990533D01*
X120498095Y-54669819D02*
X120498095Y-55479342D01*
X120498095Y-55479342D02*
X120545714Y-55574580D01*
X120545714Y-55574580D02*
X120593333Y-55622200D01*
X120593333Y-55622200D02*
X120688571Y-55669819D01*
X120688571Y-55669819D02*
X120879047Y-55669819D01*
X120879047Y-55669819D02*
X120974285Y-55622200D01*
X120974285Y-55622200D02*
X121021904Y-55574580D01*
X121021904Y-55574580D02*
X121069523Y-55479342D01*
X121069523Y-55479342D02*
X121069523Y-54669819D01*
X122069523Y-55669819D02*
X121498095Y-55669819D01*
X121783809Y-55669819D02*
X121783809Y-54669819D01*
X121783809Y-54669819D02*
X121688571Y-54812676D01*
X121688571Y-54812676D02*
X121593333Y-54907914D01*
X121593333Y-54907914D02*
X121498095Y-54955533D01*
X120498095Y-76539819D02*
X120498095Y-77349342D01*
X120498095Y-77349342D02*
X120545714Y-77444580D01*
X120545714Y-77444580D02*
X120593333Y-77492200D01*
X120593333Y-77492200D02*
X120688571Y-77539819D01*
X120688571Y-77539819D02*
X120879047Y-77539819D01*
X120879047Y-77539819D02*
X120974285Y-77492200D01*
X120974285Y-77492200D02*
X121021904Y-77444580D01*
X121021904Y-77444580D02*
X121069523Y-77349342D01*
X121069523Y-77349342D02*
X121069523Y-76539819D01*
X121498095Y-76635057D02*
X121545714Y-76587438D01*
X121545714Y-76587438D02*
X121640952Y-76539819D01*
X121640952Y-76539819D02*
X121879047Y-76539819D01*
X121879047Y-76539819D02*
X121974285Y-76587438D01*
X121974285Y-76587438D02*
X122021904Y-76635057D01*
X122021904Y-76635057D02*
X122069523Y-76730295D01*
X122069523Y-76730295D02*
X122069523Y-76825533D01*
X122069523Y-76825533D02*
X122021904Y-76968390D01*
X122021904Y-76968390D02*
X121450476Y-77539819D01*
X121450476Y-77539819D02*
X122069523Y-77539819D01*
X98666666Y-94554819D02*
X98333333Y-94078628D01*
X98095238Y-94554819D02*
X98095238Y-93554819D01*
X98095238Y-93554819D02*
X98476190Y-93554819D01*
X98476190Y-93554819D02*
X98571428Y-93602438D01*
X98571428Y-93602438D02*
X98619047Y-93650057D01*
X98619047Y-93650057D02*
X98666666Y-93745295D01*
X98666666Y-93745295D02*
X98666666Y-93888152D01*
X98666666Y-93888152D02*
X98619047Y-93983390D01*
X98619047Y-93983390D02*
X98571428Y-94031009D01*
X98571428Y-94031009D02*
X98476190Y-94078628D01*
X98476190Y-94078628D02*
X98095238Y-94078628D01*
X99095238Y-94031009D02*
X99428571Y-94031009D01*
X99571428Y-94554819D02*
X99095238Y-94554819D01*
X99095238Y-94554819D02*
X99095238Y-93554819D01*
X99095238Y-93554819D02*
X99571428Y-93554819D01*
X100333333Y-94031009D02*
X100000000Y-94031009D01*
X100000000Y-94554819D02*
X100000000Y-93554819D01*
X100000000Y-93554819D02*
X100476190Y-93554819D01*
X101000000Y-93554819D02*
X101000000Y-93792914D01*
X100761905Y-93697676D02*
X101000000Y-93792914D01*
X101000000Y-93792914D02*
X101238095Y-93697676D01*
X100857143Y-93983390D02*
X101000000Y-93792914D01*
X101000000Y-93792914D02*
X101142857Y-93983390D01*
X101761905Y-93554819D02*
X101761905Y-93792914D01*
X101523810Y-93697676D02*
X101761905Y-93792914D01*
X101761905Y-93792914D02*
X102000000Y-93697676D01*
X101619048Y-93983390D02*
X101761905Y-93792914D01*
X101761905Y-93792914D02*
X101904762Y-93983390D01*
X147011905Y-70244819D02*
X147011905Y-69244819D01*
X147011905Y-69244819D02*
X147250000Y-69244819D01*
X147250000Y-69244819D02*
X147392857Y-69292438D01*
X147392857Y-69292438D02*
X147488095Y-69387676D01*
X147488095Y-69387676D02*
X147535714Y-69482914D01*
X147535714Y-69482914D02*
X147583333Y-69673390D01*
X147583333Y-69673390D02*
X147583333Y-69816247D01*
X147583333Y-69816247D02*
X147535714Y-70006723D01*
X147535714Y-70006723D02*
X147488095Y-70101961D01*
X147488095Y-70101961D02*
X147392857Y-70197200D01*
X147392857Y-70197200D02*
X147250000Y-70244819D01*
X147250000Y-70244819D02*
X147011905Y-70244819D01*
X148154762Y-69673390D02*
X148059524Y-69625771D01*
X148059524Y-69625771D02*
X148011905Y-69578152D01*
X148011905Y-69578152D02*
X147964286Y-69482914D01*
X147964286Y-69482914D02*
X147964286Y-69435295D01*
X147964286Y-69435295D02*
X148011905Y-69340057D01*
X148011905Y-69340057D02*
X148059524Y-69292438D01*
X148059524Y-69292438D02*
X148154762Y-69244819D01*
X148154762Y-69244819D02*
X148345238Y-69244819D01*
X148345238Y-69244819D02*
X148440476Y-69292438D01*
X148440476Y-69292438D02*
X148488095Y-69340057D01*
X148488095Y-69340057D02*
X148535714Y-69435295D01*
X148535714Y-69435295D02*
X148535714Y-69482914D01*
X148535714Y-69482914D02*
X148488095Y-69578152D01*
X148488095Y-69578152D02*
X148440476Y-69625771D01*
X148440476Y-69625771D02*
X148345238Y-69673390D01*
X148345238Y-69673390D02*
X148154762Y-69673390D01*
X148154762Y-69673390D02*
X148059524Y-69721009D01*
X148059524Y-69721009D02*
X148011905Y-69768628D01*
X148011905Y-69768628D02*
X147964286Y-69863866D01*
X147964286Y-69863866D02*
X147964286Y-70054342D01*
X147964286Y-70054342D02*
X148011905Y-70149580D01*
X148011905Y-70149580D02*
X148059524Y-70197200D01*
X148059524Y-70197200D02*
X148154762Y-70244819D01*
X148154762Y-70244819D02*
X148345238Y-70244819D01*
X148345238Y-70244819D02*
X148440476Y-70197200D01*
X148440476Y-70197200D02*
X148488095Y-70149580D01*
X148488095Y-70149580D02*
X148535714Y-70054342D01*
X148535714Y-70054342D02*
X148535714Y-69863866D01*
X148535714Y-69863866D02*
X148488095Y-69768628D01*
X148488095Y-69768628D02*
X148440476Y-69721009D01*
X148440476Y-69721009D02*
X148345238Y-69673390D01*
X103511905Y-85609819D02*
X103511905Y-84609819D01*
X103511905Y-84609819D02*
X103750000Y-84609819D01*
X103750000Y-84609819D02*
X103892857Y-84657438D01*
X103892857Y-84657438D02*
X103988095Y-84752676D01*
X103988095Y-84752676D02*
X104035714Y-84847914D01*
X104035714Y-84847914D02*
X104083333Y-85038390D01*
X104083333Y-85038390D02*
X104083333Y-85181247D01*
X104083333Y-85181247D02*
X104035714Y-85371723D01*
X104035714Y-85371723D02*
X103988095Y-85466961D01*
X103988095Y-85466961D02*
X103892857Y-85562200D01*
X103892857Y-85562200D02*
X103750000Y-85609819D01*
X103750000Y-85609819D02*
X103511905Y-85609819D01*
X104988095Y-84609819D02*
X104511905Y-84609819D01*
X104511905Y-84609819D02*
X104464286Y-85086009D01*
X104464286Y-85086009D02*
X104511905Y-85038390D01*
X104511905Y-85038390D02*
X104607143Y-84990771D01*
X104607143Y-84990771D02*
X104845238Y-84990771D01*
X104845238Y-84990771D02*
X104940476Y-85038390D01*
X104940476Y-85038390D02*
X104988095Y-85086009D01*
X104988095Y-85086009D02*
X105035714Y-85181247D01*
X105035714Y-85181247D02*
X105035714Y-85419342D01*
X105035714Y-85419342D02*
X104988095Y-85514580D01*
X104988095Y-85514580D02*
X104940476Y-85562200D01*
X104940476Y-85562200D02*
X104845238Y-85609819D01*
X104845238Y-85609819D02*
X104607143Y-85609819D01*
X104607143Y-85609819D02*
X104511905Y-85562200D01*
X104511905Y-85562200D02*
X104464286Y-85514580D01*
X147011905Y-62494819D02*
X147011905Y-61494819D01*
X147011905Y-61494819D02*
X147250000Y-61494819D01*
X147250000Y-61494819D02*
X147392857Y-61542438D01*
X147392857Y-61542438D02*
X147488095Y-61637676D01*
X147488095Y-61637676D02*
X147535714Y-61732914D01*
X147535714Y-61732914D02*
X147583333Y-61923390D01*
X147583333Y-61923390D02*
X147583333Y-62066247D01*
X147583333Y-62066247D02*
X147535714Y-62256723D01*
X147535714Y-62256723D02*
X147488095Y-62351961D01*
X147488095Y-62351961D02*
X147392857Y-62447200D01*
X147392857Y-62447200D02*
X147250000Y-62494819D01*
X147250000Y-62494819D02*
X147011905Y-62494819D01*
X147916667Y-61494819D02*
X148583333Y-61494819D01*
X148583333Y-61494819D02*
X148154762Y-62494819D01*
%TO.C,R2*%
D11*
X133730000Y-88380000D02*
X140270000Y-88380000D01*
X133730000Y-88710000D02*
X133730000Y-88380000D01*
X133730000Y-90790000D02*
X133730000Y-91120000D01*
X133730000Y-91120000D02*
X140270000Y-91120000D01*
X140270000Y-88380000D02*
X140270000Y-88710000D01*
X140270000Y-91120000D02*
X140270000Y-90790000D01*
%TO.C,R1*%
X133980000Y-83380000D02*
X140520000Y-83380000D01*
X133980000Y-83710000D02*
X133980000Y-83380000D01*
X133980000Y-85790000D02*
X133980000Y-86120000D01*
X133980000Y-86120000D02*
X140520000Y-86120000D01*
X140520000Y-83380000D02*
X140520000Y-83710000D01*
X140520000Y-86120000D02*
X140520000Y-85790000D01*
%TO.C,D4*%
X101690000Y-80100000D02*
X101690000Y-83190000D01*
X101690000Y-80100170D02*
G75*
G02*
X107240000Y-81645000I2560000J-1544830D01*
G01*
X107240000Y-81645000D02*
G75*
G02*
X101690000Y-83189830I-2990000J0D01*
G01*
X106750000Y-81645000D02*
G75*
G02*
X101750000Y-81645000I-2500000J0D01*
G01*
X101750000Y-81645000D02*
G75*
G02*
X106750000Y-81645000I2500000J0D01*
G01*
%TO.C,D3*%
X101690000Y-72630000D02*
X101690000Y-75720000D01*
X101690000Y-72630170D02*
G75*
G02*
X107240000Y-74175000I2560000J-1544830D01*
G01*
X107240000Y-74175000D02*
G75*
G02*
X101690000Y-75719830I-2990000J0D01*
G01*
X106750000Y-74175000D02*
G75*
G02*
X101750000Y-74175000I-2500000J0D01*
G01*
X101750000Y-74175000D02*
G75*
G02*
X106750000Y-74175000I2500000J0D01*
G01*
%TO.C,D9*%
X145420000Y-79955000D02*
X145420000Y-83045000D01*
X145420000Y-79955170D02*
G75*
G02*
X150970000Y-81500000I2560000J-1544830D01*
G01*
X150970000Y-81500000D02*
G75*
G02*
X145420000Y-83044830I-2990000J0D01*
G01*
X150480000Y-81500000D02*
G75*
G02*
X145480000Y-81500000I-2500000J0D01*
G01*
X145480000Y-81500000D02*
G75*
G02*
X150480000Y-81500000I2500000J0D01*
G01*
%TO.C,D10*%
X145460000Y-87455000D02*
X145460000Y-90545000D01*
X145460000Y-87455170D02*
G75*
G02*
X151010000Y-89000000I2560000J-1544830D01*
G01*
X151010000Y-89000000D02*
G75*
G02*
X145460000Y-90544830I-2990000J0D01*
G01*
X150520000Y-89000000D02*
G75*
G02*
X145520000Y-89000000I-2500000J0D01*
G01*
X145520000Y-89000000D02*
G75*
G02*
X150520000Y-89000000I2500000J0D01*
G01*
%TO.C,D6*%
X144940000Y-56455000D02*
X144940000Y-59545000D01*
X144940000Y-56455170D02*
G75*
G02*
X150490000Y-58000000I2560000J-1544830D01*
G01*
X150490000Y-58000000D02*
G75*
G02*
X144940000Y-59544830I-2990000J0D01*
G01*
X150000000Y-58000000D02*
G75*
G02*
X145000000Y-58000000I-2500000J0D01*
G01*
X145000000Y-58000000D02*
G75*
G02*
X150000000Y-58000000I2500000J0D01*
G01*
%TO.C,C2*%
X134530000Y-56880000D02*
X139470000Y-56880000D01*
X134530000Y-57210000D02*
X134530000Y-56880000D01*
X134530000Y-59620000D02*
X134530000Y-59290000D01*
X139470000Y-56880000D02*
X139470000Y-57210000D01*
X139470000Y-59290000D02*
X139470000Y-59620000D01*
X139470000Y-59620000D02*
X134530000Y-59620000D01*
%TO.C,RV1*%
X130750000Y-74890000D02*
X130750000Y-80110000D01*
X130750000Y-74890000D02*
X132870000Y-74890000D01*
X130750000Y-80110000D02*
X140670000Y-80110000D01*
X133570000Y-74890000D02*
X140670000Y-74890000D01*
X140670000Y-74890000D02*
X140670000Y-80110000D01*
X133170000Y-74890000D02*
X132930000Y-74560000D01*
X133410000Y-74560000D01*
X133170000Y-74890000D01*
G36*
X133170000Y-74890000D02*
G01*
X132930000Y-74560000D01*
X133410000Y-74560000D01*
X133170000Y-74890000D01*
G37*
%TO.C,D1*%
X101690000Y-57690000D02*
X101690000Y-60780000D01*
X101690000Y-57690170D02*
G75*
G02*
X107240000Y-59235000I2560000J-1544830D01*
G01*
X107240000Y-59235000D02*
G75*
G02*
X101690000Y-60779830I-2990000J0D01*
G01*
X106750000Y-59235000D02*
G75*
G02*
X101750000Y-59235000I-2500000J0D01*
G01*
X101750000Y-59235000D02*
G75*
G02*
X106750000Y-59235000I2500000J0D01*
G01*
%TO.C,J1*%
X131170000Y-66250000D02*
X131170000Y-68850000D01*
X131170000Y-66250000D02*
X133830000Y-66250000D01*
X131170000Y-68850000D02*
X133830000Y-68850000D01*
X132500000Y-63650000D02*
X133830000Y-63650000D01*
X133830000Y-63650000D02*
X133830000Y-64980000D01*
X133830000Y-66250000D02*
X133830000Y-68850000D01*
%TO.C,D2*%
X101960000Y-64705000D02*
X101960000Y-67795000D01*
X101960000Y-64705170D02*
G75*
G02*
X107510000Y-66250000I2560000J-1544830D01*
G01*
X107510000Y-66250000D02*
G75*
G02*
X101960000Y-67794830I-2990000J0D01*
G01*
X107020000Y-66250000D02*
G75*
G02*
X102020000Y-66250000I-2500000J0D01*
G01*
X102020000Y-66250000D02*
G75*
G02*
X107020000Y-66250000I2500000J0D01*
G01*
%TO.C,C1*%
X135445225Y-65525000D02*
X135945225Y-65525000D01*
X135695225Y-65275000D02*
X135695225Y-65775000D01*
X138250000Y-64420000D02*
X138250000Y-69580000D01*
X138290000Y-64420000D02*
X138290000Y-69580000D01*
X138330000Y-64421000D02*
X138330000Y-69579000D01*
X138370000Y-64423000D02*
X138370000Y-69577000D01*
X138410000Y-64425000D02*
X138410000Y-69575000D01*
X138450000Y-64428000D02*
X138450000Y-69572000D01*
X138490000Y-64431000D02*
X138490000Y-65960000D01*
X138490000Y-68040000D02*
X138490000Y-69569000D01*
X138530000Y-64435000D02*
X138530000Y-65960000D01*
X138530000Y-68040000D02*
X138530000Y-69565000D01*
X138570000Y-64440000D02*
X138570000Y-65960000D01*
X138570000Y-68040000D02*
X138570000Y-69560000D01*
X138610000Y-64445000D02*
X138610000Y-65960000D01*
X138610000Y-68040000D02*
X138610000Y-69555000D01*
X138650000Y-64451000D02*
X138650000Y-65960000D01*
X138650000Y-68040000D02*
X138650000Y-69549000D01*
X138690000Y-64457000D02*
X138690000Y-65960000D01*
X138690000Y-68040000D02*
X138690000Y-69543000D01*
X138730000Y-64464000D02*
X138730000Y-65960000D01*
X138730000Y-68040000D02*
X138730000Y-69536000D01*
X138770000Y-64472000D02*
X138770000Y-65960000D01*
X138770000Y-68040000D02*
X138770000Y-69528000D01*
X138810000Y-64481000D02*
X138810000Y-65960000D01*
X138810000Y-68040000D02*
X138810000Y-69519000D01*
X138850000Y-64490000D02*
X138850000Y-65960000D01*
X138850000Y-68040000D02*
X138850000Y-69510000D01*
X138890000Y-64499000D02*
X138890000Y-65960000D01*
X138890000Y-68040000D02*
X138890000Y-69501000D01*
X138930000Y-64510000D02*
X138930000Y-65960000D01*
X138930000Y-68040000D02*
X138930000Y-69490000D01*
X138970000Y-64521000D02*
X138970000Y-65960000D01*
X138970000Y-68040000D02*
X138970000Y-69479000D01*
X139010000Y-64533000D02*
X139010000Y-65960000D01*
X139010000Y-68040000D02*
X139010000Y-69467000D01*
X139050000Y-64545000D02*
X139050000Y-65960000D01*
X139050000Y-68040000D02*
X139050000Y-69455000D01*
X139090000Y-64558000D02*
X139090000Y-65960000D01*
X139090000Y-68040000D02*
X139090000Y-69442000D01*
X139130000Y-64572000D02*
X139130000Y-65960000D01*
X139130000Y-68040000D02*
X139130000Y-69428000D01*
X139170000Y-64587000D02*
X139170000Y-65960000D01*
X139170000Y-68040000D02*
X139170000Y-69413000D01*
X139210000Y-64602000D02*
X139210000Y-65960000D01*
X139210000Y-68040000D02*
X139210000Y-69398000D01*
X139250000Y-64618000D02*
X139250000Y-65960000D01*
X139250000Y-68040000D02*
X139250000Y-69382000D01*
X139290000Y-64635000D02*
X139290000Y-65960000D01*
X139290000Y-68040000D02*
X139290000Y-69365000D01*
X139330000Y-64653000D02*
X139330000Y-65960000D01*
X139330000Y-68040000D02*
X139330000Y-69347000D01*
X139370000Y-64671000D02*
X139370000Y-65960000D01*
X139370000Y-68040000D02*
X139370000Y-69329000D01*
X139410000Y-64691000D02*
X139410000Y-65960000D01*
X139410000Y-68040000D02*
X139410000Y-69309000D01*
X139450000Y-64711000D02*
X139450000Y-65960000D01*
X139450000Y-68040000D02*
X139450000Y-69289000D01*
X139490000Y-64732000D02*
X139490000Y-65960000D01*
X139490000Y-68040000D02*
X139490000Y-69268000D01*
X139530000Y-64754000D02*
X139530000Y-65960000D01*
X139530000Y-68040000D02*
X139530000Y-69246000D01*
X139570000Y-64777000D02*
X139570000Y-65960000D01*
X139570000Y-68040000D02*
X139570000Y-69223000D01*
X139610000Y-64801000D02*
X139610000Y-65960000D01*
X139610000Y-68040000D02*
X139610000Y-69199000D01*
X139650000Y-64825000D02*
X139650000Y-65960000D01*
X139650000Y-68040000D02*
X139650000Y-69175000D01*
X139690000Y-64851000D02*
X139690000Y-65960000D01*
X139690000Y-68040000D02*
X139690000Y-69149000D01*
X139730000Y-64878000D02*
X139730000Y-65960000D01*
X139730000Y-68040000D02*
X139730000Y-69122000D01*
X139770000Y-64906000D02*
X139770000Y-65960000D01*
X139770000Y-68040000D02*
X139770000Y-69094000D01*
X139810000Y-64935000D02*
X139810000Y-65960000D01*
X139810000Y-68040000D02*
X139810000Y-69065000D01*
X139850000Y-64965000D02*
X139850000Y-65960000D01*
X139850000Y-68040000D02*
X139850000Y-69035000D01*
X139890000Y-64997000D02*
X139890000Y-65960000D01*
X139890000Y-68040000D02*
X139890000Y-69003000D01*
X139930000Y-65030000D02*
X139930000Y-65960000D01*
X139930000Y-68040000D02*
X139930000Y-68970000D01*
X139970000Y-65064000D02*
X139970000Y-65960000D01*
X139970000Y-68040000D02*
X139970000Y-68936000D01*
X140010000Y-65099000D02*
X140010000Y-65960000D01*
X140010000Y-68040000D02*
X140010000Y-68901000D01*
X140050000Y-65136000D02*
X140050000Y-65960000D01*
X140050000Y-68040000D02*
X140050000Y-68864000D01*
X140090000Y-65175000D02*
X140090000Y-65960000D01*
X140090000Y-68040000D02*
X140090000Y-68825000D01*
X140130000Y-65215000D02*
X140130000Y-65960000D01*
X140130000Y-68040000D02*
X140130000Y-68785000D01*
X140170000Y-65257000D02*
X140170000Y-65960000D01*
X140170000Y-68040000D02*
X140170000Y-68743000D01*
X140210000Y-65301000D02*
X140210000Y-65960000D01*
X140210000Y-68040000D02*
X140210000Y-68699000D01*
X140250000Y-65348000D02*
X140250000Y-65960000D01*
X140250000Y-68040000D02*
X140250000Y-68652000D01*
X140290000Y-65396000D02*
X140290000Y-65960000D01*
X140290000Y-68040000D02*
X140290000Y-68604000D01*
X140330000Y-65447000D02*
X140330000Y-65960000D01*
X140330000Y-68040000D02*
X140330000Y-68553000D01*
X140370000Y-65501000D02*
X140370000Y-65960000D01*
X140370000Y-68040000D02*
X140370000Y-68499000D01*
X140410000Y-65557000D02*
X140410000Y-65960000D01*
X140410000Y-68040000D02*
X140410000Y-68443000D01*
X140450000Y-65617000D02*
X140450000Y-65960000D01*
X140450000Y-68040000D02*
X140450000Y-68383000D01*
X140490000Y-65681000D02*
X140490000Y-65960000D01*
X140490000Y-68040000D02*
X140490000Y-68319000D01*
X140530000Y-65749000D02*
X140530000Y-65960000D01*
X140530000Y-68040000D02*
X140530000Y-68251000D01*
X140570000Y-65823000D02*
X140570000Y-68177000D01*
X140610000Y-65902000D02*
X140610000Y-68098000D01*
X140650000Y-65989000D02*
X140650000Y-68011000D01*
X140690000Y-66086000D02*
X140690000Y-67914000D01*
X140730000Y-66195000D02*
X140730000Y-67805000D01*
X140770000Y-66323000D02*
X140770000Y-67677000D01*
X140810000Y-66483000D02*
X140810000Y-67517000D01*
X140850000Y-66717000D02*
X140850000Y-67283000D01*
X140870000Y-67000000D02*
G75*
G02*
X135630000Y-67000000I-2620000J0D01*
G01*
X135630000Y-67000000D02*
G75*
G02*
X140870000Y-67000000I2620000J0D01*
G01*
%TO.C,U1*%
X119010000Y-56215000D02*
X119010000Y-76655000D01*
X119010000Y-76655000D02*
X123510000Y-76655000D01*
X120260000Y-56215000D02*
X119010000Y-56215000D01*
X123510000Y-56215000D02*
X122260000Y-56215000D01*
X123510000Y-76655000D02*
X123510000Y-56215000D01*
X122260000Y-56215000D02*
G75*
G02*
X120260000Y-56215000I-1000000J0D01*
G01*
%TO.C,U2*%
X119010000Y-78085000D02*
X119010000Y-88365000D01*
X119010000Y-88365000D02*
X123510000Y-88365000D01*
X120260000Y-78085000D02*
X119010000Y-78085000D01*
X123510000Y-78085000D02*
X122260000Y-78085000D01*
X123510000Y-88365000D02*
X123510000Y-78085000D01*
X122260000Y-78085000D02*
G75*
G02*
X120260000Y-78085000I-1000000J0D01*
G01*
%TO.C,D8*%
X145190000Y-72205000D02*
X145190000Y-75295000D01*
X145190000Y-72205170D02*
G75*
G02*
X150740000Y-73750000I2560000J-1544830D01*
G01*
X150740000Y-73750000D02*
G75*
G02*
X145190000Y-75294830I-2990000J0D01*
G01*
X150250000Y-73750000D02*
G75*
G02*
X145250000Y-73750000I-2500000J0D01*
G01*
X145250000Y-73750000D02*
G75*
G02*
X150250000Y-73750000I2500000J0D01*
G01*
%TO.C,D5*%
X101690000Y-87570000D02*
X101690000Y-90660000D01*
X101690000Y-87570170D02*
G75*
G02*
X107240000Y-89115000I2560000J-1544830D01*
G01*
X107240000Y-89115000D02*
G75*
G02*
X101690000Y-90659830I-2990000J0D01*
G01*
X106750000Y-89115000D02*
G75*
G02*
X101750000Y-89115000I-2500000J0D01*
G01*
X101750000Y-89115000D02*
G75*
G02*
X106750000Y-89115000I2500000J0D01*
G01*
%TO.C,D7*%
X145190000Y-64455000D02*
X145190000Y-67545000D01*
X145190000Y-64455170D02*
G75*
G02*
X150740000Y-66000000I2560000J-1544830D01*
G01*
X150740000Y-66000000D02*
G75*
G02*
X145190000Y-67544830I-2990000J0D01*
G01*
X150250000Y-66000000D02*
G75*
G02*
X145250000Y-66000000I-2500000J0D01*
G01*
X145250000Y-66000000D02*
G75*
G02*
X150250000Y-66000000I2500000J0D01*
G01*
%TD*%
M02*
