%TF.GenerationSoftware,KiCad,Pcbnew,10.0.0*%
%TF.CreationDate,2026-04-19T18:52:56+05:30*%
%TF.ProjectId,Blinky,426c696e-6b79-42e6-9b69-6361645f7063,rev?*%
%TF.SameCoordinates,Original*%
%TF.FileFunction,Soldermask,Top*%
%TF.FilePolarity,Negative*%
%FSLAX46Y46*%
G04 Gerber Fmt 4.6, Leading zero omitted, Abs format (unit mm)*
G04 Created by KiCad (PCBNEW 10.0.0) date 2026-04-19 18:52:56*
%MOMM*%
%LPD*%
G01*
G04 APERTURE LIST*
G04 Aperture macros list*
%AMRoundRect*
0 Rectangle with rounded corners*
0 $1 Rounding radius*
0 $2 $3 $4 $5 $6 $7 $8 $9 X,Y pos of 4 corners*
0 Add a 4 corners polygon primitive as box body*
4,1,4,$2,$3,$4,$5,$6,$7,$8,$9,$2,$3,0*
0 Add four circle primitives for the rounded corners*
1,1,$1+$1,$2,$3*
1,1,$1+$1,$4,$5*
1,1,$1+$1,$6,$7*
1,1,$1+$1,$8,$9*
0 Add four rect primitives between the rounded corners*
20,1,$1+$1,$2,$3,$4,$5,0*
20,1,$1+$1,$4,$5,$6,$7,0*
20,1,$1+$1,$6,$7,$8,$9,0*
20,1,$1+$1,$8,$9,$2,$3,0*%
G04 Aperture macros list end*
%ADD10C,1.600000*%
%ADD11C,2.200000*%
%ADD12R,1.800000X1.800000*%
%ADD13C,1.800000*%
%ADD14RoundRect,0.412500X-0.412500X-0.412500X0.412500X-0.412500X0.412500X0.412500X-0.412500X0.412500X0*%
%ADD15C,1.650000*%
%ADD16R,1.700000X1.700000*%
%ADD17C,1.700000*%
%ADD18RoundRect,0.250000X-0.550000X-0.550000X0.550000X-0.550000X0.550000X0.550000X-0.550000X0.550000X0*%
%ADD19RoundRect,0.250000X-0.950000X-0.550000X0.950000X-0.550000X0.950000X0.550000X-0.950000X0.550000X0*%
%ADD20O,2.400000X1.600000*%
G04 APERTURE END LIST*
D10*
%TO.C,R2*%
X133190000Y-89750000D03*
X140810000Y-89750000D03*
%TD*%
%TO.C,R1*%
X133440000Y-84750000D03*
X141060000Y-84750000D03*
%TD*%
D11*
%TO.C,REF\u002A\u002A*%
X153500000Y-97500000D03*
%TD*%
%TO.C,REF\u002A\u002A*%
X153500000Y-52750000D03*
%TD*%
D12*
%TO.C,D4*%
X102980000Y-81645000D03*
D13*
X105520000Y-81645000D03*
%TD*%
D12*
%TO.C,D3*%
X102980000Y-74175000D03*
D13*
X105520000Y-74175000D03*
%TD*%
D12*
%TO.C,D9*%
X146710000Y-81500000D03*
D13*
X149250000Y-81500000D03*
%TD*%
D12*
%TO.C,D10*%
X146750000Y-89000000D03*
D13*
X149290000Y-89000000D03*
%TD*%
D12*
%TO.C,D6*%
X146230000Y-58000000D03*
D13*
X148770000Y-58000000D03*
%TD*%
D10*
%TO.C,C2*%
X134500000Y-58250000D03*
X139500000Y-58250000D03*
%TD*%
D14*
%TO.C,RV1*%
X133170000Y-77500000D03*
D15*
X135710000Y-77500000D03*
X138250000Y-77500000D03*
%TD*%
D12*
%TO.C,D1*%
X102980000Y-59235000D03*
D13*
X105520000Y-59235000D03*
%TD*%
D16*
%TO.C,J1*%
X132500000Y-64980000D03*
D17*
X132500000Y-67520000D03*
%TD*%
D11*
%TO.C,REF\u002A\u002A*%
X99250000Y-53000000D03*
%TD*%
D12*
%TO.C,D2*%
X103250000Y-66250000D03*
D13*
X105790000Y-66250000D03*
%TD*%
D18*
%TO.C,C1*%
X137000000Y-67000000D03*
D10*
X139500000Y-67000000D03*
%TD*%
D19*
%TO.C,U1*%
X117450000Y-57545000D03*
D20*
X117450000Y-60085000D03*
X117450000Y-62625000D03*
X117450000Y-65165000D03*
X117450000Y-67705000D03*
X117450000Y-70245000D03*
X117450000Y-72785000D03*
X117450000Y-75325000D03*
X125070000Y-75325000D03*
X125070000Y-72785000D03*
X125070000Y-70245000D03*
X125070000Y-67705000D03*
X125070000Y-65165000D03*
X125070000Y-62625000D03*
X125070000Y-60085000D03*
X125070000Y-57545000D03*
%TD*%
D19*
%TO.C,U2*%
X117450000Y-79415000D03*
D20*
X117450000Y-81955000D03*
X117450000Y-84495000D03*
X117450000Y-87035000D03*
X125070000Y-87035000D03*
X125070000Y-84495000D03*
X125070000Y-81955000D03*
X125070000Y-79415000D03*
%TD*%
D11*
%TO.C,REF\u002A\u002A*%
X100000000Y-97250000D03*
%TD*%
D12*
%TO.C,D8*%
X146480000Y-73750000D03*
D13*
X149020000Y-73750000D03*
%TD*%
D12*
%TO.C,D5*%
X102980000Y-89115000D03*
D13*
X105520000Y-89115000D03*
%TD*%
D12*
%TO.C,D7*%
X146480000Y-66000000D03*
D13*
X149020000Y-66000000D03*
%TD*%
M02*
