%TF.GenerationSoftware,KiCad,Pcbnew,10.0.0*%
%TF.CreationDate,2026-04-19T18:52:56+05:30*%
%TF.ProjectId,Blinky,426c696e-6b79-42e6-9b69-6361645f7063,rev?*%
%TF.SameCoordinates,Original*%
%TF.FileFunction,Copper,L1,Top*%
%TF.FilePolarity,Positive*%
%FSLAX46Y46*%
G04 Gerber Fmt 4.6, Leading zero omitted, Abs format (unit mm)*
G04 Created by KiCad (PCBNEW 10.0.0) date 2026-04-19 18:52:56*
%MOMM*%
%LPD*%
G01*
G04 APERTURE LIST*
G04 Aperture macros list*
%AMRoundRect*
0 Rectangle with rounded corners*
0 $1 Rounding radius*
0 $2 $3 $4 $5 $6 $7 $8 $9 X,Y pos of 4 corners*
0 Add a 4 corners polygon primitive as box body*
4,1,4,$2,$3,$4,$5,$6,$7,$8,$9,$2,$3,0*
0 Add four circle primitives for the rounded corners*
1,1,$1+$1,$2,$3*
1,1,$1+$1,$4,$5*
1,1,$1+$1,$6,$7*
1,1,$1+$1,$8,$9*
0 Add four rect primitives between the rounded corners*
20,1,$1+$1,$2,$3,$4,$5,0*
20,1,$1+$1,$4,$5,$6,$7,0*
20,1,$1+$1,$6,$7,$8,$9,0*
20,1,$1+$1,$8,$9,$2,$3,0*%
G04 Aperture macros list end*
%TA.AperFunction,ComponentPad*%
%ADD10C,1.600000*%
%TD*%
%TA.AperFunction,ComponentPad*%
%ADD11R,1.800000X1.800000*%
%TD*%
%TA.AperFunction,ComponentPad*%
%ADD12C,1.800000*%
%TD*%
%TA.AperFunction,ComponentPad*%
%ADD13RoundRect,0.412500X-0.412500X-0.412500X0.412500X-0.412500X0.412500X0.412500X-0.412500X0.412500X0*%
%TD*%
%TA.AperFunction,ComponentPad*%
%ADD14C,1.650000*%
%TD*%
%TA.AperFunction,ComponentPad*%
%ADD15R,1.700000X1.700000*%
%TD*%
%TA.AperFunction,ComponentPad*%
%ADD16C,1.700000*%
%TD*%
%TA.AperFunction,ComponentPad*%
%ADD17RoundRect,0.250000X-0.550000X-0.550000X0.550000X-0.550000X0.550000X0.550000X-0.550000X0.550000X0*%
%TD*%
%TA.AperFunction,ComponentPad*%
%ADD18RoundRect,0.250000X-0.950000X-0.550000X0.950000X-0.550000X0.950000X0.550000X-0.950000X0.550000X0*%
%TD*%
%TA.AperFunction,ComponentPad*%
%ADD19O,2.400000X1.600000*%
%TD*%
%TA.AperFunction,Conductor*%
%ADD20C,0.350000*%
%TD*%
G04 APERTURE END LIST*
D10*
%TO.P,R2,1*%
%TO.N,Net-(D1-K)*%
X133190000Y-89750000D03*
%TO.P,R2,2*%
%TO.N,GND*%
X140810000Y-89750000D03*
%TD*%
%TO.P,R1,1*%
%TO.N,5V*%
X133440000Y-84750000D03*
%TO.P,R1,2*%
%TO.N,Net-(U2-DIS)*%
X141060000Y-84750000D03*
%TD*%
D11*
%TO.P,D4,1,K_1*%
%TO.N,Net-(D1-K)*%
X102980000Y-81645000D03*
D12*
%TO.P,D4,2,A_2*%
%TO.N,Net-(D4-A)*%
X105520000Y-81645000D03*
%TD*%
D11*
%TO.P,D3,1,K_1*%
%TO.N,Net-(D1-K)*%
X102980000Y-74175000D03*
D12*
%TO.P,D3,2,A_2*%
%TO.N,Net-(D3-A)*%
X105520000Y-74175000D03*
%TD*%
D11*
%TO.P,D9,1,K_1*%
%TO.N,Net-(D1-K)*%
X146710000Y-81500000D03*
D12*
%TO.P,D9,2,A_2*%
%TO.N,Net-(D9-A)*%
X149250000Y-81500000D03*
%TD*%
D11*
%TO.P,D10,1,K_1*%
%TO.N,Net-(D1-K)*%
X146750000Y-89000000D03*
D12*
%TO.P,D10,2,A_2*%
%TO.N,Net-(D10-A)*%
X149290000Y-89000000D03*
%TD*%
D11*
%TO.P,D6,1,K_1*%
%TO.N,Net-(D1-K)*%
X146230000Y-58000000D03*
D12*
%TO.P,D6,2,A_2*%
%TO.N,Net-(D6-A)*%
X148770000Y-58000000D03*
%TD*%
D10*
%TO.P,C2,1*%
%TO.N,GND*%
X134500000Y-58250000D03*
%TO.P,C2,2*%
%TO.N,Net-(U2-CV)*%
X139500000Y-58250000D03*
%TD*%
D13*
%TO.P,RV1,1,1_1*%
%TO.N,Net-(U2-DIS)*%
X133170000Y-77500000D03*
D14*
%TO.P,RV1,2,2_2*%
X135710000Y-77500000D03*
%TO.P,RV1,3,3_3*%
%TO.N,Net-(U2-THR)*%
X138250000Y-77500000D03*
%TD*%
D11*
%TO.P,D1,1,K_1*%
%TO.N,Net-(D1-K)*%
X102980000Y-59235000D03*
D12*
%TO.P,D1,2,A_2*%
%TO.N,Net-(D1-A)*%
X105520000Y-59235000D03*
%TD*%
D15*
%TO.P,J1,1,Pin_1_1*%
%TO.N,5V*%
X132500000Y-64980000D03*
D16*
%TO.P,J1,2,Pin_2_2*%
%TO.N,GND*%
X132500000Y-67520000D03*
%TD*%
D11*
%TO.P,D2,1,K_1*%
%TO.N,Net-(D1-K)*%
X103250000Y-66250000D03*
D12*
%TO.P,D2,2,A_2*%
%TO.N,Net-(D2-A)*%
X105790000Y-66250000D03*
%TD*%
D17*
%TO.P,C1,1*%
%TO.N,Net-(U2-THR)*%
X137000000Y-67000000D03*
D10*
%TO.P,C1,2*%
%TO.N,GND*%
X139500000Y-67000000D03*
%TD*%
D18*
%TO.P,U1,1,Q5_1*%
%TO.N,Net-(D6-A)*%
X117450000Y-57545000D03*
D19*
%TO.P,U1,2,Q1_2*%
%TO.N,Net-(D2-A)*%
X117450000Y-60085000D03*
%TO.P,U1,3,Q0_3*%
%TO.N,Net-(D1-A)*%
X117450000Y-62625000D03*
%TO.P,U1,4,Q2_4*%
%TO.N,Net-(D3-A)*%
X117450000Y-65165000D03*
%TO.P,U1,5,Q6_5*%
%TO.N,Net-(D7-A)*%
X117450000Y-67705000D03*
%TO.P,U1,6,Q7_6*%
%TO.N,Net-(D8-A)*%
X117450000Y-70245000D03*
%TO.P,U1,7,Q3_7*%
%TO.N,Net-(D4-A)*%
X117450000Y-72785000D03*
%TO.P,U1,8,VSS_8*%
%TO.N,GND*%
X117450000Y-75325000D03*
%TO.P,U1,9,Q8_9*%
%TO.N,Net-(D9-A)*%
X125070000Y-75325000D03*
%TO.P,U1,10,Q4_10*%
%TO.N,Net-(D5-A)*%
X125070000Y-72785000D03*
%TO.P,U1,11,Q9_11*%
%TO.N,Net-(D10-A)*%
X125070000Y-70245000D03*
%TO.P,U1,12,Cout_12*%
%TO.N,unconnected-(U1-Cout-Pad12)*%
X125070000Y-67705000D03*
%TO.P,U1,13,CKEN_13*%
%TO.N,GND*%
X125070000Y-65165000D03*
%TO.P,U1,14,CLK_14*%
%TO.N,Net-(U1-CLK)*%
X125070000Y-62625000D03*
%TO.P,U1,15,Reset_15*%
%TO.N,GND*%
X125070000Y-60085000D03*
%TO.P,U1,16,VDD_16*%
%TO.N,5V*%
X125070000Y-57545000D03*
%TD*%
D18*
%TO.P,U2,1,GND_1*%
%TO.N,GND*%
X117450000Y-79415000D03*
D19*
%TO.P,U2,2,TR_2*%
%TO.N,Net-(U2-THR)*%
X117450000Y-81955000D03*
%TO.P,U2,3,Q_3*%
%TO.N,Net-(U1-CLK)*%
X117450000Y-84495000D03*
%TO.P,U2,4,R_4*%
%TO.N,5V*%
X117450000Y-87035000D03*
%TO.P,U2,5,CV_5*%
%TO.N,Net-(U2-CV)*%
X125070000Y-87035000D03*
%TO.P,U2,6,THR_6*%
%TO.N,Net-(U2-THR)*%
X125070000Y-84495000D03*
%TO.P,U2,7,DIS_7*%
%TO.N,Net-(U2-DIS)*%
X125070000Y-81955000D03*
%TO.P,U2,8,VCC_8*%
%TO.N,5V*%
X125070000Y-79415000D03*
%TD*%
D11*
%TO.P,D8,1,K_1*%
%TO.N,Net-(D1-K)*%
X146480000Y-73750000D03*
D12*
%TO.P,D8,2,A_2*%
%TO.N,Net-(D8-A)*%
X149020000Y-73750000D03*
%TD*%
D11*
%TO.P,D5,1,K_1*%
%TO.N,Net-(D1-K)*%
X102980000Y-89115000D03*
D12*
%TO.P,D5,2,A_2*%
%TO.N,Net-(D5-A)*%
X105520000Y-89115000D03*
%TD*%
D11*
%TO.P,D7,1,K_1*%
%TO.N,Net-(D1-K)*%
X146480000Y-66000000D03*
D12*
%TO.P,D7,2,A_2*%
%TO.N,Net-(D7-A)*%
X149020000Y-66000000D03*
%TD*%
%TO.N,GND*%
D20*
X133725000Y-66205000D02*
X131190000Y-66205000D01*
X131190000Y-66205000D02*
X126645000Y-61660000D01*
X126645000Y-61660000D02*
X126645000Y-63590000D01*
X138130000Y-68370000D02*
X139500000Y-67000000D01*
X126645000Y-63590000D02*
X125070000Y-65165000D01*
X133725000Y-66295000D02*
X133725000Y-66205000D01*
X133350000Y-68370000D02*
X138130000Y-68370000D01*
X132500000Y-67520000D02*
X133725000Y-66295000D01*
X134500000Y-65430000D02*
X133725000Y-66205000D01*
X132500000Y-67520000D02*
X133350000Y-68370000D01*
X125070000Y-60085000D02*
X126645000Y-61660000D01*
X134500000Y-58250000D02*
X134500000Y-65430000D01*
%TO.N,Net-(D1-K)*%
X150525000Y-80971877D02*
X149778123Y-80225000D01*
X146230000Y-65750000D02*
X146480000Y-66000000D01*
X146750000Y-89000000D02*
X148015000Y-90265000D01*
X146230000Y-58000000D02*
X146230000Y-65750000D01*
X149778123Y-80225000D02*
X147985000Y-80225000D01*
X147985000Y-80225000D02*
X146710000Y-81500000D01*
X148015000Y-84538123D02*
X150525000Y-82028123D01*
X150525000Y-82028123D02*
X150525000Y-80971877D01*
X148015000Y-90265000D02*
X148015000Y-84538123D01*
%TO.N,Net-(D2-A)*%
X111285000Y-66250000D02*
X117450000Y-60085000D01*
X105790000Y-66250000D02*
X111285000Y-66250000D01*
%TO.N,Net-(D3-A)*%
X105520000Y-74175000D02*
X106825000Y-74175000D01*
X115835000Y-65165000D02*
X117450000Y-65165000D01*
X106825000Y-74175000D02*
X115835000Y-65165000D01*
%TO.N,Net-(D4-A)*%
X108590000Y-81645000D02*
X117450000Y-72785000D01*
X105520000Y-81645000D02*
X108590000Y-81645000D01*
%TO.N,Net-(D5-A)*%
X119615000Y-78240000D02*
X125070000Y-72785000D01*
X105520000Y-89115000D02*
X105520000Y-87842208D01*
X115122208Y-78240000D02*
X119615000Y-78240000D01*
X105520000Y-87842208D02*
X115122208Y-78240000D01*
%TO.N,Net-(D6-A)*%
X118625000Y-56370000D02*
X117450000Y-57545000D01*
X148770000Y-58000000D02*
X147140000Y-56370000D01*
X147140000Y-56370000D02*
X118625000Y-56370000D01*
%TO.N,Net-(D7-A)*%
X115875000Y-84008299D02*
X116563299Y-83320000D01*
X149020000Y-68481701D02*
X134615000Y-82886701D01*
X125956701Y-78240000D02*
X126645000Y-77551701D01*
X134615000Y-82886701D02*
X134615000Y-85236701D01*
X124183299Y-78240000D02*
X125956701Y-78240000D01*
X126645000Y-69568299D02*
X125956701Y-68880000D01*
X116563299Y-88210000D02*
X115875000Y-87521701D01*
X118625000Y-68880000D02*
X117450000Y-67705000D01*
X131641701Y-88210000D02*
X116563299Y-88210000D01*
X134615000Y-85236701D02*
X131641701Y-88210000D01*
X126645000Y-77551701D02*
X126645000Y-69568299D01*
X116563299Y-83320000D02*
X119103299Y-83320000D01*
X119103299Y-83320000D02*
X124183299Y-78240000D01*
X125956701Y-68880000D02*
X118625000Y-68880000D01*
X115875000Y-87521701D02*
X115875000Y-84008299D01*
X149020000Y-66000000D02*
X149020000Y-68481701D01*
%TO.N,Net-(D8-A)*%
X119387182Y-77690000D02*
X119387182Y-72182182D01*
X119387182Y-72182182D02*
X117450000Y-70245000D01*
X135165000Y-85464519D02*
X130239519Y-90390000D01*
X104744391Y-87840000D02*
X114894391Y-77690000D01*
X101705000Y-87840000D02*
X104744391Y-87840000D01*
X130239519Y-90390000D02*
X101705000Y-90390000D01*
X135750000Y-85464519D02*
X135500000Y-85464519D01*
X149020000Y-73750000D02*
X137305481Y-85464519D01*
X137305481Y-85464519D02*
X135750000Y-85464519D01*
X101705000Y-90390000D02*
X101705000Y-87840000D01*
X135750000Y-85464519D02*
X135165000Y-85464519D01*
X114894391Y-77690000D02*
X119387182Y-77690000D01*
%TO.N,Net-(D9-A)*%
X149250000Y-81500000D02*
X144546331Y-86203669D01*
X135392818Y-86014519D02*
X136750000Y-86014519D01*
X135203668Y-86203669D02*
X135392818Y-86014519D01*
X144546331Y-86203669D02*
X135203668Y-86203669D01*
%TO.N,Net-(D10-A)*%
X136026700Y-90925000D02*
X134300850Y-89199150D01*
X149290000Y-90272792D02*
X148637792Y-90925000D01*
X148637792Y-90925000D02*
X136026700Y-90925000D01*
X149290000Y-89000000D02*
X149290000Y-90272792D01*
%TO.N,5V*%
X125070000Y-79415000D02*
X117450000Y-87035000D01*
X125070000Y-57550000D02*
X132500000Y-64980000D01*
X128105000Y-79415000D02*
X125070000Y-79415000D01*
X125070000Y-57545000D02*
X125070000Y-57550000D01*
X128105000Y-79415000D02*
X128105000Y-68488299D01*
X124183299Y-66340000D02*
X123495000Y-65651701D01*
X128105000Y-79415000D02*
X133440000Y-84750000D01*
X128105000Y-68488299D02*
X125956701Y-66340000D01*
X123495000Y-59120000D02*
X125070000Y-57545000D01*
X125956701Y-66340000D02*
X124183299Y-66340000D01*
X123495000Y-65651701D02*
X123495000Y-59120000D01*
%TD*%
M02*
